# Blender v2.81 (sub 16) OBJ File: 'spaceShip.blend'
# www.blender.org
mtllib spaceShip.mtl
o booster
v 0.001730 0.814936 0.005522
v -0.588752 -0.000000 0.595930
v 0.592211 -0.000000 0.595930
v -0.588752 0.000000 -0.584886
v 0.592211 0.000000 -0.584886
vt 0.001460 1.687975
vt -0.497029 1.000000
vt 0.499949 1.000000
vt 0.004662 1.687975
vt -0.493765 1.000000
vt 0.503089 1.000000
vt -0.001460 1.687975
vt -0.499949 1.000000
vt 0.497029 1.000000
vt -0.004662 1.687975
vt -0.503089 1.000000
vt 0.493765 1.000000
vt 0.499949 1.503089
vt -0.497029 1.503089
vt -0.497029 0.506235
vt 0.499949 0.506235
vn 0.0000 1.0000 0.0000
vn -0.6991 0.1497 0.6991
vn 0.6991 0.1497 0.6992
vn -0.6991 0.1497 -0.6992
vn 0.6991 0.1497 -0.6991
g booster_booster_metaltread
usemtl metaltread
s 1
f 1/1/1 2/2/2 3/3/3
f 1/4/1 4/5/4 2/6/2
f 1/7/1 5/8/5 4/9/4
f 1/10/1 3/11/3 5/12/5
f 3/13/3 2/14/2 4/15/4 5/16/5
o body
v 0.290980 0.381131 -0.291095
v -0.283643 0.381131 -0.291095
v -0.283643 1.565674 -0.291095
v 0.290980 1.565674 -0.291095
v -0.283643 0.381131 0.285939
v -0.283643 1.565674 0.285940
v 0.290980 0.381131 0.285939
v 0.290980 1.565674 0.285940
vt -0.245647 1.321753
vt 0.239453 1.321753
vt 0.239453 2.321753
vt -0.245647 2.321753
vt -0.245745 1.321753
vt 0.241392 1.321753
vt 0.241392 2.321753
vt -0.245745 2.321753
vt -0.239453 1.321753
vt 0.245647 1.321753
vt 0.245647 2.321753
vt -0.239453 2.321753
vt -0.241392 1.321753
vt 0.245745 1.321753
vt 0.245745 2.321753
vt -0.241392 2.321753
vt 0.245647 1.241392
vt -0.239453 1.241392
vt -0.239453 0.754255
vt 0.245647 0.754255
vt 0.245647 1.245745
vt -0.239453 1.245745
vt -0.239453 0.758608
vt 0.245647 0.758608
vn 0.5774 -0.5774 -0.5774
vn -0.5774 -0.5774 -0.5774
vn -0.5774 0.5774 -0.5774
vn 0.5774 0.5774 -0.5774
vn -0.5774 -0.5774 0.5774
vn -0.5774 0.5774 0.5774
vn 0.5774 -0.5774 0.5774
vn 0.5774 0.5774 0.5774
g body_body_metal37
usemtl metal37
s 1
f 6/17/6 7/18/7 8/19/8 9/20/9
f 7/21/7 10/22/10 11/23/11 8/24/8
f 10/25/10 12/26/12 13/27/13 11/28/11
f 12/29/12 6/30/6 9/31/9 13/32/13
f 12/33/12 10/34/10 7/35/7 6/36/6
f 9/37/9 8/38/8 11/39/11 13/40/13
o fire
v 0.484703 -0.028610 -0.500168
v -0.477366 -0.028610 -0.500168
v -0.477366 0.053277 -0.500168
v 0.484703 0.053277 -0.500168
v -0.477366 -0.028610 0.495012
v -0.477366 0.053277 0.495012
v 0.484703 -0.028610 0.495012
v 0.484703 0.053277 0.495012
vt -0.409190 0.975847
vt 0.402995 0.975847
vt 0.402995 1.044976
vt -0.409190 1.044976
vt -0.422245 0.975847
vt 0.417893 0.975847
vt 0.417893 1.044976
vt -0.422245 1.044976
vt -0.402995 0.975847
vt 0.409190 0.975847
vt 0.409190 1.044976
vt -0.402995 1.044976
vt -0.417893 0.975847
vt 0.422245 0.975847
vt 0.422245 1.044976
vt -0.417893 1.044976
vt 0.409190 1.417893
vt -0.402995 1.417893
vt -0.402995 0.577755
vt 0.409190 0.577755
vt 0.409190 1.422245
vt -0.402995 1.422245
vt -0.402995 0.582107
vt 0.409190 0.582107
vn 0.5774 -0.5774 -0.5774
vn -0.5774 -0.5774 -0.5774
vn -0.5774 0.5774 -0.5774
vn 0.5774 0.5774 -0.5774
vn -0.5774 -0.5774 0.5774
vn -0.5774 0.5774 0.5774
vn 0.5774 -0.5774 0.5774
vn 0.5774 0.5774 0.5774
g fire_fire_fractalgrate01
usemtl fractalgrate01
s 1
f 14/41/14 15/42/15 16/43/16 17/44/17
f 15/45/15 18/46/18 19/47/19 16/48/16
f 18/49/18 20/50/20 21/51/21 19/52/19
f 20/53/20 14/54/14 17/55/17 21/56/21
f 20/57/20 18/58/18 15/59/15 14/60/14
f 17/61/17 16/62/16 19/63/19 21/64/21
o cap
v 0.001730 2.381228 0.005523
v -0.284052 1.566292 0.292852
v 0.287511 1.566292 0.292852
v -0.284052 1.566292 -0.281807
v 0.287511 1.566292 -0.281807
vt 0.001460 3.010249
vt -0.239799 2.322274
vt 0.242719 2.322274
vt 0.004662 3.010249
vt -0.237904 2.322274
vt 0.247227 2.322274
vt -0.001460 3.010249
vt -0.242719 2.322274
vt 0.239799 2.322274
vt -0.004662 3.010249
vt -0.247227 2.322274
vt 0.237904 2.322274
vt 0.242719 1.247227
vt -0.239799 1.247227
vt -0.239799 0.762096
vt 0.242719 0.762096
vn 0.0000 1.0000 0.0000
vn -0.6858 -0.2446 0.6854
vn 0.6855 -0.2446 0.6857
vn -0.6858 -0.2446 -0.6854
vn 0.6858 -0.2446 -0.6854
g cap_cap_steel
usemtl steel
s 1
f 22/65/22 23/66/23 24/67/24
f 22/68/22 25/69/25 23/70/23
f 22/71/22 26/72/26 25/73/25
f 22/74/22 24/75/24 26/76/26
f 24/77/24 23/78/23 25/79/25 26/80/26
o panel1
v -0.207745 0.483832 -0.175275
v -0.302785 0.483832 -0.175275
v -0.302785 1.462973 -0.175275
v -0.207745 1.462973 -0.175275
v -0.302785 0.483832 0.170119
v -0.302785 1.462973 0.170119
v -0.207745 0.483832 0.170119
v -0.207745 1.462973 0.170119
vt 0.175380 1.408454
vt 0.255614 1.408454
vt 0.255614 2.235052
vt 0.175380 2.235052
vt -0.147968 1.408454
vt 0.143616 1.408454
vt 0.143616 2.235052
vt -0.147968 2.235052
vt -0.255614 1.408454
vt -0.175380 1.408454
vt -0.175380 2.235052
vt -0.255614 2.235052
vt -0.143616 1.408454
vt 0.147968 1.408454
vt 0.147968 2.235052
vt -0.143616 2.235052
vt -0.175380 1.143616
vt -0.255614 1.143616
vt -0.255614 0.852032
vt -0.175380 0.852032
vt -0.175380 1.147968
vt -0.255614 1.147968
vt -0.255614 0.856384
vt -0.175380 0.856384
vn 0.5774 -0.5774 -0.5774
vn -0.5774 -0.5774 -0.5774
vn -0.5774 0.5774 -0.5774
vn 0.5774 0.5774 -0.5774
vn -0.5774 -0.5774 0.5774
vn -0.5774 0.5774 0.5774
vn 0.5774 -0.5774 0.5774
vn 0.5774 0.5774 0.5774
g panel1_panel1_circuit
usemtl circuit
s 1
f 27/81/27 28/82/28 29/83/29 30/84/30
f 28/85/28 31/86/31 32/87/32 29/88/29
f 31/89/31 33/90/33 34/91/34 32/92/32
f 33/93/33 27/94/27 30/95/30 34/96/34
f 33/97/33 31/98/31 28/99/28 27/100/27
f 30/101/30 29/102/29 32/103/32 34/104/34
o panel2
v 0.302695 0.483832 -0.175275
v 0.207655 0.483832 -0.175275
v 0.207655 1.462973 -0.175275
v 0.302695 1.462973 -0.175275
v 0.207655 0.483832 0.170119
v 0.207655 1.462973 0.170119
v 0.302695 0.483832 0.170119
v 0.302695 1.462973 0.170119
vt -0.127769 1.204227
vt -0.087652 1.204227
vt -0.087652 1.617526
vt -0.127769 1.617526
vt -0.073984 1.204227
vt 0.071808 1.204227
vt 0.071808 1.617526
vt -0.073984 1.617526
vt 0.087652 1.204227
vt 0.127769 1.204227
vt 0.127769 1.617526
vt 0.087652 1.617526
vt -0.071808 1.204227
vt 0.073984 1.204227
vt 0.073984 1.617526
vt -0.071808 1.617526
vt 0.127769 1.071808
vt 0.087652 1.071808
vt 0.087652 0.926016
vt 0.127769 0.926016
vt 0.127769 1.073984
vt 0.087652 1.073984
vt 0.087652 0.928192
vt 0.127769 0.928192
vn 0.5774 -0.5774 -0.5774
vn -0.5774 -0.5774 -0.5774
vn -0.5774 0.5774 -0.5774
vn 0.5774 0.5774 -0.5774
vn -0.5774 -0.5774 0.5774
vn -0.5774 0.5774 0.5774
vn 0.5774 -0.5774 0.5774
vn 0.5774 0.5774 0.5774
g panel2_panel2_tech_pat
usemtl tech_pat
s 1
f 35/105/35 36/106/36 37/107/37 38/108/38
f 36/109/36 39/110/39 40/111/40 37/112/37
f 39/113/39 41/114/41 42/115/42 40/116/40
f 41/117/41 35/118/35 38/119/38 42/120/42
f 41/121/41 39/122/39 36/123/36 35/124/35
f 38/125/38 37/126/37 40/127/40 42/128/42
